<svg width="77" height="44" viewBox="0 0 77 44" fill="none" xmlns="http://www.w3.org/2000/svg">
<path d="M0.0742188 6.08594H1.98832L2.37892 7.74609H4.95702V9.79688H2.66212V14.5137C2.66212 15.4707 3.07552 15.9492 3.90232 15.9492H4.95702V18H2.65232C0.933619 18 0.0742188 17.0788 0.0742188 15.2363V6.08594ZM6.72462 18V4.03516H9.31252V9.05469C10.1198 8.18229 11.1517 7.74609 12.4082 7.74609C14.8366 7.74609 16.0508 9.00911 16.0508 11.5352V18H13.4629V11.5352C13.4629 10.4023 12.8997 9.83594 11.7734 9.83594C10.9336 9.83594 10.1133 10.1712 9.31252 10.8418V18H6.72462ZM22.8281 7.74609C25.9401 7.74609 27.4961 9.33464 27.4961 12.5117C27.4961 12.9349 27.4668 13.3581 27.4082 13.7812H20.6016C20.6016 15.2266 21.6628 15.9492 23.7852 15.9492C24.8203 15.9492 25.8555 15.8516 26.8906 15.6562V17.707C25.9857 17.9023 24.8854 18 23.5898 18C19.8724 18 18.0137 16.252 18.0137 12.7559C18.0137 9.41602 19.6185 7.74609 22.8281 7.74609ZM20.6016 11.9844H24.9766V11.9062C24.9766 10.487 24.2604 9.77734 22.8281 9.77734C21.4609 9.77734 20.7188 10.513 20.6016 11.9844Z" fill="white"/>
<path d="M0.220703 40V29.7461H2.2227L2.5449 31.0547C3.4434 30.1823 4.3939 29.7461 5.3965 29.7461V31.8359C4.4329 31.8359 3.5703 32.2363 2.8086 33.0371V40H0.220703ZM11.1875 29.7461C14.2995 29.7461 15.8555 31.3346 15.8555 34.5117C15.8555 34.9349 15.8262 35.3581 15.7676 35.7812H8.9609C8.9609 37.2266 10.0221 37.9492 12.1445 37.9492C13.1797 37.9492 14.2148 37.8516 15.25 37.6562V39.707C14.3451 39.9023 13.2448 40 11.9492 40C8.2318 40 6.373 38.252 6.373 34.7559C6.373 31.416 7.9779 29.7461 11.1875 29.7461ZM8.9609 33.9844H13.3359V33.9062C13.3359 32.487 12.6198 31.7773 11.1875 31.7773C9.8203 31.7773 9.0781 32.513 8.9609 33.9844ZM16.5781 29.7461H19.3125L21.8027 36.9141L24.3906 29.7461H27.125L22.9551 40H20.4941L16.5781 29.7461ZM32.6719 29.7461C35.7839 29.7461 37.3398 31.3346 37.3398 34.5117C37.3398 34.9349 37.3105 35.3581 37.252 35.7812H30.4453C30.4453 37.2266 31.5065 37.9492 33.6289 37.9492C34.6641 37.9492 35.6992 37.8516 36.7344 37.6562V39.707C35.8294 39.9023 34.7292 40 33.4336 40C29.7161 40 27.8574 38.252 27.8574 34.7559C27.8574 31.416 29.4622 29.7461 32.6719 29.7461ZM30.4453 33.9844H34.8203V33.9062C34.8203 32.487 34.1042 31.7773 32.6719 31.7773C31.3047 31.7773 30.5625 32.513 30.4453 33.9844ZM39.2832 40V29.7461H41.2852L41.6074 31.25C42.5905 30.2474 43.7103 29.7461 44.9668 29.7461C47.3952 29.7461 48.6094 31.0091 48.6094 33.5352V40H46.0215V33.5352C46.0215 32.4023 45.4583 31.8359 44.332 31.8359C43.4922 31.8359 42.6719 32.1712 41.8711 32.8418V40H39.2832Z" fill="white"/>
<path d="M73 23.5H58C55.7909 23.5 54 25.2909 54 27.5V38.5C54 40.7091 55.7909 42.5 58 42.5H73C75.2091 42.5 77 40.7091 77 38.5V27.5C77 25.2909 75.2091 23.5 73 23.5Z" fill="#0771ED"/>
<path d="M58.2822 35.3036V36.5H56.9883V35.3036H58.2822ZM65.0742 36.207C64.472 36.4349 63.7884 36.5488 63.0234 36.5488C60.5169 36.5488 59.2637 35.3362 59.2637 32.911C59.2637 30.6161 60.5169 29.4688 63.0234 29.4688C63.7884 29.4688 64.472 29.5826 65.0742 29.8104V30.9824C64.472 30.722 63.821 30.5918 63.1211 30.5918C61.4447 30.5918 60.6064 31.3648 60.6064 32.911C60.6064 34.5875 61.4447 35.4258 63.1211 35.4258C63.821 35.4258 64.472 35.2955 65.0742 35.0351V36.207ZM67.3936 32.9893C67.3936 34.6136 68.1146 35.4258 69.5566 35.4258C70.9629 35.4258 71.666 34.6136 71.666 32.9893C71.666 31.391 70.9629 30.5918 69.5566 30.5918C68.1146 30.5918 67.3936 31.391 67.3936 32.9893ZM66.0508 33.0186C66.0508 30.652 67.2194 29.4688 69.5566 29.4688C71.8581 29.4688 73.0088 30.652 73.0088 33.0186C73.0088 35.3721 71.8581 36.5488 69.5566 36.5488C67.3236 36.5488 66.1549 35.3721 66.0508 33.0186Z" fill="white"/>
</svg>
